<?xml version="1.0" standalone="no"?>
<!DOCTYPE svg PUBLIC "-//W3C//DTD SVG 20010904//EN"
 "http://www.w3.org/TR/2001/REC-SVG-20010904/DTD/svg10.dtd">
<svg version="1.0" xmlns="http://www.w3.org/2000/svg"
 width="512.000000pt" height="512.000000pt" viewBox="0 0 512.000000 512.000000"
 preserveAspectRatio="xMidYMid meet">
<metadata>
Created by potrace 1.11, written by Peter Selinger 2001-2013
</metadata>
<g transform="translate(0.000000,512.000000) scale(0.100000,-0.100000)"
fill="#000000" stroke="none">
<path d="M2 4184 l3 -935 480 -244 c264 -134 481 -247 482 -252 2 -4 -215
-339 -482 -743 l-485 -735 0 -637 c0 -351 3 -638 8 -637 11 1 2013 3019 2008
3027 -3 4 -264 138 -580 297 l-576 290 0 398 0 397 605 0 c333 0 605 -2 605
-5 0 -3 -68 -107 -151 -231 -83 -124 -149 -227 -147 -229 2 -1 148 -75 324
-163 l322 -161 483 736 c266 405 488 742 492 749 7 12 -255 14 -1693 14
l-1700 0 2 -936z"/>
<path d="M4047 4813 c-328 -496 -3106 -4693 -3149 -4756 l-39 -57 429 0 429 0
1692 2554 c930 1405 1691 2557 1691 2560 0 3 -191 6 -425 6 l-425 0 -203 -307z"/>
<path d="M4115 2348 c-550 -831 -1125 -1699 -1277 -1929 l-277 -419 428 0 429
0 851 1285 851 1285 -2 644 -3 644 -1000 -1510z"/>
<path d="M4695 654 c-231 -349 -421 -639 -423 -644 -2 -6 155 -10 422 -10
l426 0 0 645 c0 355 -1 645 -2 645 -2 0 -192 -286 -423 -636z"/>
</g>
</svg>
