<?xml version="1.0" encoding="utf-8"?>
<!-- Generator: Adobe Illustrator 24.0.0, SVG Export Plug-In . SVG Version: 6.00 Build 0)  -->
<svg version="1.1" id="Layer_1" xmlns="http://www.w3.org/2000/svg" xmlns:xlink="http://www.w3.org/1999/xlink" x="0px" y="0px"
	 viewBox="0 0 184.1 77.1" style="enable-background:new 0 0 184.1 77.1;" xml:space="preserve">
<style type="text/css">
	.st0{fill:#FFFFFF;}
</style>
<g>
	<path class="st0" d="M63.9,34.7v37.6H52.3V61.6c0-5.1,0.1-9.6,0.3-14.4c-0.3,1.6-0.7,3.2-1.2,5.1l-4.8,19.9h-9.7l-4.9-19.9
		c-0.4-1.8-0.8-3.3-1.1-4.8c0.2,4.6,0.3,9,0.3,14v10.7H19.6V34.7H38l3,14.3c0.3,1.5,0.6,3,0.9,4.5c0.3-1.5,0.5-3,0.8-4.5l2.9-14.3
		H63.9z"/>
	<path class="st0" d="M94.8,67.4H81.3l-1.5,4.9H67.9l12.7-37.6h14.6l13.5,37.6H96.3L94.8,67.4z M92.2,58.7L89.6,50
		c-0.5-1.8-1.1-3.7-1.6-5.6L86.4,50l-2.6,8.7H92.2z"/>
	<path class="st0" d="M129.1,58.2l-4.5,5.3v8.8h-11.9V34.7h11.9v14.7l11.7-14.7H150l-13.1,15.4L151,72.3h-13.6L129.1,58.2z"/>
	<path class="st0" d="M155,34.7h11.9v37.6H155V34.7z"/>
</g>
</svg>
