<svg xmlns="http://www.w3.org/2000/svg" width="40" height="40" viewBox="0 0 40 40">
  <g id="Layer_2" data-name="Layer 2" transform="translate(-0.232 -0.232)">
    <g id="invisible_box" data-name="invisible box">
      <rect id="Rectangle_40" data-name="Rectangle 40" width="40" height="40" transform="translate(0.232 0.232)" fill="none"/>
    </g>
    <g id="icons_Q2" data-name="icons Q2" transform="translate(1.686 3.372)">
      <path id="Path_44" data-name="Path 44" d="M28.977,7.456A6.407,6.407,0,0,1,33.7,9.48,6.491,6.491,0,0,1,35.721,14.2c0,1.77-1.1,3.794-3.288,6.238L20.546,33.084,8.66,20.439C6.468,17.994,5.372,15.971,5.372,14.2A6.491,6.491,0,0,1,7.4,9.48a6.407,6.407,0,0,1,4.721-2.023c1.855,0,4.3,1.686,5.48,3.794l2.192,3.709a.927.927,0,0,0,1.517,0L23.5,11.25c1.18-2.108,3.625-3.794,5.48-3.794m0-3.456c-3.288,0-6.744,2.613-8.43,5.48C18.86,6.613,15.4,4,12.116,4A10.116,10.116,0,0,0,4.951,7.035,10.032,10.032,0,0,0,2,14.2c0,3.456,2.276,6.407,4.215,8.6L19.956,37.468a.843.843,0,0,0,1.18,0L34.878,22.8c1.939-2.192,4.215-5.142,4.215-8.6A10.2,10.2,0,0,0,28.976,4Z" transform="translate(-2 -4)"/>
    </g>
  </g>
</svg>
